<mxfile host="app.diagrams.net" agent="Mozilla/5.0 (Windows NT 10.0; Win64; x64) AppleWebKit/537.36 (KHTML, like Gecko) Chrome/127.0.0.0 Safari/537.36" version="24.7.7">
  <diagram name="PÃ¡gina-1" id="wZhYJEySsufgWSKdxDIi">
    <mxGraphModel dx="2261" dy="1941" grid="1" gridSize="10" guides="1" tooltips="1" connect="1" arrows="1" fold="1" page="1" pageScale="1" pageWidth="827" pageHeight="1169" math="0" shadow="0">
      <root>
        <mxCell id="0" />
        <mxCell id="1" parent="0" />
        <mxCell id="ejJGMftJFJ5ZxU9vuZ6l-6" value="" style="edgeStyle=orthogonalEdgeStyle;rounded=0;orthogonalLoop=1;jettySize=auto;html=1;entryX=0;entryY=0.669;entryDx=0;entryDy=0;entryPerimeter=0;" edge="1" parent="1" source="ejJGMftJFJ5ZxU9vuZ6l-2" target="ejJGMftJFJ5ZxU9vuZ6l-60">
          <mxGeometry relative="1" as="geometry">
            <mxPoint x="730" y="-190" as="targetPoint" />
          </mxGeometry>
        </mxCell>
        <mxCell id="ejJGMftJFJ5ZxU9vuZ6l-53" value="" style="edgeStyle=orthogonalEdgeStyle;rounded=0;orthogonalLoop=1;jettySize=auto;html=1;exitX=0;exitY=0.5;exitDx=0;exitDy=0;" edge="1" parent="1" source="ejJGMftJFJ5ZxU9vuZ6l-30" target="ejJGMftJFJ5ZxU9vuZ6l-52">
          <mxGeometry relative="1" as="geometry" />
        </mxCell>
        <mxCell id="ejJGMftJFJ5ZxU9vuZ6l-2" value="Validate data" style="whiteSpace=wrap;html=1;" vertex="1" parent="1">
          <mxGeometry y="-95" width="120" height="60" as="geometry" />
        </mxCell>
        <mxCell id="ejJGMftJFJ5ZxU9vuZ6l-31" value="" style="edgeStyle=orthogonalEdgeStyle;rounded=0;orthogonalLoop=1;jettySize=auto;html=1;" edge="1" parent="1" source="ejJGMftJFJ5ZxU9vuZ6l-37" target="ejJGMftJFJ5ZxU9vuZ6l-30">
          <mxGeometry relative="1" as="geometry" />
        </mxCell>
        <mxCell id="ejJGMftJFJ5ZxU9vuZ6l-7" value="Validated?" style="rhombus;whiteSpace=wrap;html=1;" vertex="1" parent="1">
          <mxGeometry x="590" y="-342.5" width="80" height="80" as="geometry" />
        </mxCell>
        <mxCell id="ejJGMftJFJ5ZxU9vuZ6l-63" style="edgeStyle=orthogonalEdgeStyle;rounded=0;orthogonalLoop=1;jettySize=auto;html=1;entryX=0.917;entryY=0.033;entryDx=0;entryDy=0;entryPerimeter=0;" edge="1" parent="1" source="ejJGMftJFJ5ZxU9vuZ6l-9" target="ejJGMftJFJ5ZxU9vuZ6l-13">
          <mxGeometry relative="1" as="geometry" />
        </mxCell>
        <mxCell id="ejJGMftJFJ5ZxU9vuZ6l-9" value="Reject Request" style="whiteSpace=wrap;html=1;" vertex="1" parent="1">
          <mxGeometry x="330" y="-332.5" width="120" height="60" as="geometry" />
        </mxCell>
        <mxCell id="ejJGMftJFJ5ZxU9vuZ6l-11" value="" style="edgeStyle=orthogonalEdgeStyle;rounded=0;orthogonalLoop=1;jettySize=auto;html=1;entryX=1;entryY=0.5;entryDx=0;entryDy=0;" edge="1" parent="1" source="ejJGMftJFJ5ZxU9vuZ6l-28" target="ejJGMftJFJ5ZxU9vuZ6l-9">
          <mxGeometry relative="1" as="geometry">
            <mxPoint x="660" y="50" as="sourcePoint" />
            <mxPoint x="670" y="20" as="targetPoint" />
          </mxGeometry>
        </mxCell>
        <mxCell id="ejJGMftJFJ5ZxU9vuZ6l-64" style="edgeStyle=orthogonalEdgeStyle;rounded=0;orthogonalLoop=1;jettySize=auto;html=1;exitX=0.25;exitY=0;exitDx=0;exitDy=0;entryX=1;entryY=0.5;entryDx=0;entryDy=0;" edge="1" parent="1" source="ejJGMftJFJ5ZxU9vuZ6l-13" target="ejJGMftJFJ5ZxU9vuZ6l-32">
          <mxGeometry relative="1" as="geometry">
            <mxPoint x="197" y="-280" as="targetPoint" />
          </mxGeometry>
        </mxCell>
        <mxCell id="ejJGMftJFJ5ZxU9vuZ6l-69" style="edgeStyle=orthogonalEdgeStyle;rounded=0;orthogonalLoop=1;jettySize=auto;html=1;entryX=1;entryY=0.5;entryDx=0;entryDy=0;" edge="1" parent="1" source="ejJGMftJFJ5ZxU9vuZ6l-13" target="ejJGMftJFJ5ZxU9vuZ6l-47">
          <mxGeometry relative="1" as="geometry">
            <mxPoint x="70" y="-170" as="targetPoint" />
          </mxGeometry>
        </mxCell>
        <mxCell id="ejJGMftJFJ5ZxU9vuZ6l-13" value="Add timer to the next request" style="whiteSpace=wrap;html=1;" vertex="1" parent="1">
          <mxGeometry x="180" y="-200" width="230" height="60" as="geometry" />
        </mxCell>
        <mxCell id="ejJGMftJFJ5ZxU9vuZ6l-23" style="edgeStyle=orthogonalEdgeStyle;rounded=0;orthogonalLoop=1;jettySize=auto;html=1;exitX=0.988;exitY=0.658;exitDx=0;exitDy=0;exitPerimeter=0;" edge="1" parent="1" source="ejJGMftJFJ5ZxU9vuZ6l-17" target="ejJGMftJFJ5ZxU9vuZ6l-2">
          <mxGeometry relative="1" as="geometry">
            <mxPoint x="-60" y="-190" as="sourcePoint" />
          </mxGeometry>
        </mxCell>
        <mxCell id="ejJGMftJFJ5ZxU9vuZ6l-17" value="API" style="rounded=1;whiteSpace=wrap;html=1;" vertex="1" parent="1">
          <mxGeometry x="-210" y="-320" width="160" height="387.5" as="geometry" />
        </mxCell>
        <mxCell id="ejJGMftJFJ5ZxU9vuZ6l-22" style="edgeStyle=orthogonalEdgeStyle;rounded=0;orthogonalLoop=1;jettySize=auto;html=1;" edge="1" parent="1" source="ejJGMftJFJ5ZxU9vuZ6l-18" target="ejJGMftJFJ5ZxU9vuZ6l-17">
          <mxGeometry relative="1" as="geometry" />
        </mxCell>
        <mxCell id="ejJGMftJFJ5ZxU9vuZ6l-18" value="User" style="shape=umlActor;verticalLabelPosition=bottom;verticalAlign=top;html=1;outlineConnect=0;" vertex="1" parent="1">
          <mxGeometry x="-360" y="-156.25" width="30" height="60" as="geometry" />
        </mxCell>
        <mxCell id="ejJGMftJFJ5ZxU9vuZ6l-29" value="" style="edgeStyle=orthogonalEdgeStyle;rounded=0;orthogonalLoop=1;jettySize=auto;html=1;entryX=1;entryY=0.5;entryDx=0;entryDy=0;" edge="1" parent="1" source="ejJGMftJFJ5ZxU9vuZ6l-7" target="ejJGMftJFJ5ZxU9vuZ6l-28">
          <mxGeometry relative="1" as="geometry">
            <mxPoint x="610" y="150" as="sourcePoint" />
            <mxPoint x="610" y="80" as="targetPoint" />
          </mxGeometry>
        </mxCell>
        <mxCell id="ejJGMftJFJ5ZxU9vuZ6l-28" value="No" style="text;html=1;align=center;verticalAlign=middle;whiteSpace=wrap;rounded=0;" vertex="1" parent="1">
          <mxGeometry x="490" y="-317.5" width="60" height="30" as="geometry" />
        </mxCell>
        <mxCell id="ejJGMftJFJ5ZxU9vuZ6l-30" value="Accept Request" style="whiteSpace=wrap;html=1;" vertex="1" parent="1">
          <mxGeometry x="570" y="95" width="120" height="60" as="geometry" />
        </mxCell>
        <mxCell id="ejJGMftJFJ5ZxU9vuZ6l-34" style="edgeStyle=orthogonalEdgeStyle;rounded=0;orthogonalLoop=1;jettySize=auto;html=1;entryX=0.981;entryY=0.145;entryDx=0;entryDy=0;entryPerimeter=0;" edge="1" parent="1" source="ejJGMftJFJ5ZxU9vuZ6l-32" target="ejJGMftJFJ5ZxU9vuZ6l-17">
          <mxGeometry relative="1" as="geometry" />
        </mxCell>
        <mxCell id="ejJGMftJFJ5ZxU9vuZ6l-32" value="Return 400 - Bad request status" style="whiteSpace=wrap;html=1;" vertex="1" parent="1">
          <mxGeometry y="-332.5" width="120" height="60" as="geometry" />
        </mxCell>
        <mxCell id="ejJGMftJFJ5ZxU9vuZ6l-38" value="" style="edgeStyle=orthogonalEdgeStyle;rounded=0;orthogonalLoop=1;jettySize=auto;html=1;" edge="1" parent="1" source="ejJGMftJFJ5ZxU9vuZ6l-7" target="ejJGMftJFJ5ZxU9vuZ6l-37">
          <mxGeometry relative="1" as="geometry">
            <mxPoint x="610" y="230" as="sourcePoint" />
            <mxPoint x="610" y="320" as="targetPoint" />
          </mxGeometry>
        </mxCell>
        <mxCell id="ejJGMftJFJ5ZxU9vuZ6l-37" value="Yes" style="text;html=1;align=center;verticalAlign=middle;whiteSpace=wrap;rounded=0;" vertex="1" parent="1">
          <mxGeometry x="600" y="-20" width="60" height="30" as="geometry" />
        </mxCell>
        <mxCell id="ejJGMftJFJ5ZxU9vuZ6l-78" style="edgeStyle=orthogonalEdgeStyle;rounded=0;orthogonalLoop=1;jettySize=auto;html=1;" edge="1" parent="1" source="ejJGMftJFJ5ZxU9vuZ6l-41" target="ejJGMftJFJ5ZxU9vuZ6l-43">
          <mxGeometry relative="1" as="geometry" />
        </mxCell>
        <mxCell id="ejJGMftJFJ5ZxU9vuZ6l-41" value="Process request" style="whiteSpace=wrap;html=1;" vertex="1" parent="1">
          <mxGeometry x="450" y="-40" width="120" height="60" as="geometry" />
        </mxCell>
        <mxCell id="ejJGMftJFJ5ZxU9vuZ6l-68" style="edgeStyle=orthogonalEdgeStyle;rounded=0;orthogonalLoop=1;jettySize=auto;html=1;" edge="1" parent="1" source="ejJGMftJFJ5ZxU9vuZ6l-43" target="ejJGMftJFJ5ZxU9vuZ6l-13">
          <mxGeometry relative="1" as="geometry" />
        </mxCell>
        <mxCell id="ejJGMftJFJ5ZxU9vuZ6l-43" value="Cache Response" style="whiteSpace=wrap;html=1;" vertex="1" parent="1">
          <mxGeometry x="235" y="-40" width="120" height="60" as="geometry" />
        </mxCell>
        <mxCell id="ejJGMftJFJ5ZxU9vuZ6l-46" value="Asynchronous" style="shape=parallelogram;perimeter=parallelogramPerimeter;whiteSpace=wrap;html=1;fixedSize=1;" vertex="1" parent="1">
          <mxGeometry x="440" y="-200" width="130" height="60" as="geometry" />
        </mxCell>
        <mxCell id="ejJGMftJFJ5ZxU9vuZ6l-49" style="edgeStyle=orthogonalEdgeStyle;rounded=0;orthogonalLoop=1;jettySize=auto;html=1;entryX=0.988;entryY=0.39;entryDx=0;entryDy=0;entryPerimeter=0;" edge="1" parent="1" source="ejJGMftJFJ5ZxU9vuZ6l-47" target="ejJGMftJFJ5ZxU9vuZ6l-17">
          <mxGeometry relative="1" as="geometry" />
        </mxCell>
        <mxCell id="ejJGMftJFJ5ZxU9vuZ6l-47" value="Return 200 - {data} response" style="whiteSpace=wrap;html=1;" vertex="1" parent="1">
          <mxGeometry y="-200" width="120" height="60" as="geometry" />
        </mxCell>
        <mxCell id="ejJGMftJFJ5ZxU9vuZ6l-56" value="" style="edgeStyle=orthogonalEdgeStyle;rounded=0;orthogonalLoop=1;jettySize=auto;html=1;" edge="1" parent="1" source="ejJGMftJFJ5ZxU9vuZ6l-65" target="ejJGMftJFJ5ZxU9vuZ6l-55">
          <mxGeometry relative="1" as="geometry" />
        </mxCell>
        <mxCell id="ejJGMftJFJ5ZxU9vuZ6l-73" style="edgeStyle=orthogonalEdgeStyle;rounded=0;orthogonalLoop=1;jettySize=auto;html=1;entryX=0.5;entryY=1;entryDx=0;entryDy=0;" edge="1" parent="1" source="ejJGMftJFJ5ZxU9vuZ6l-75" target="ejJGMftJFJ5ZxU9vuZ6l-41">
          <mxGeometry relative="1" as="geometry" />
        </mxCell>
        <mxCell id="ejJGMftJFJ5ZxU9vuZ6l-76" style="edgeStyle=orthogonalEdgeStyle;rounded=0;orthogonalLoop=1;jettySize=auto;html=1;entryX=0;entryY=0.667;entryDx=0;entryDy=0;entryPerimeter=0;" edge="1" parent="1" source="ejJGMftJFJ5ZxU9vuZ6l-52" target="ejJGMftJFJ5ZxU9vuZ6l-75">
          <mxGeometry relative="1" as="geometry">
            <mxPoint x="470" y="60" as="targetPoint" />
          </mxGeometry>
        </mxCell>
        <mxCell id="ejJGMftJFJ5ZxU9vuZ6l-52" value="Check cached response" style="rhombus;whiteSpace=wrap;html=1;" vertex="1" parent="1">
          <mxGeometry x="330" y="85" width="160" height="80" as="geometry" />
        </mxCell>
        <mxCell id="ejJGMftJFJ5ZxU9vuZ6l-67" style="edgeStyle=orthogonalEdgeStyle;rounded=0;orthogonalLoop=1;jettySize=auto;html=1;entryX=0;entryY=0.5;entryDx=0;entryDy=0;exitX=0.5;exitY=0;exitDx=0;exitDy=0;" edge="1" parent="1" source="ejJGMftJFJ5ZxU9vuZ6l-55" target="ejJGMftJFJ5ZxU9vuZ6l-43">
          <mxGeometry relative="1" as="geometry" />
        </mxCell>
        <mxCell id="ejJGMftJFJ5ZxU9vuZ6l-55" value="Get cached response" style="whiteSpace=wrap;html=1;" vertex="1" parent="1">
          <mxGeometry y="40" width="120" height="60" as="geometry" />
        </mxCell>
        <mxCell id="ejJGMftJFJ5ZxU9vuZ6l-61" style="edgeStyle=orthogonalEdgeStyle;rounded=0;orthogonalLoop=1;jettySize=auto;html=1;entryX=1;entryY=0.5;entryDx=0;entryDy=0;exitX=-0.006;exitY=0.121;exitDx=0;exitDy=0;exitPerimeter=0;" edge="1" parent="1" source="ejJGMftJFJ5ZxU9vuZ6l-60" target="ejJGMftJFJ5ZxU9vuZ6l-7">
          <mxGeometry relative="1" as="geometry" />
        </mxCell>
        <mxCell id="ejJGMftJFJ5ZxU9vuZ6l-60" value="Controllers" style="rounded=1;whiteSpace=wrap;html=1;" vertex="1" parent="1">
          <mxGeometry x="720" y="-332.5" width="180" height="400" as="geometry" />
        </mxCell>
        <mxCell id="ejJGMftJFJ5ZxU9vuZ6l-66" value="" style="edgeStyle=orthogonalEdgeStyle;rounded=0;orthogonalLoop=1;jettySize=auto;html=1;" edge="1" parent="1" source="ejJGMftJFJ5ZxU9vuZ6l-52" target="ejJGMftJFJ5ZxU9vuZ6l-65">
          <mxGeometry relative="1" as="geometry">
            <mxPoint x="330" y="110" as="sourcePoint" />
            <mxPoint x="170" y="140" as="targetPoint" />
          </mxGeometry>
        </mxCell>
        <mxCell id="ejJGMftJFJ5ZxU9vuZ6l-65" value="Same response" style="text;html=1;align=center;verticalAlign=middle;whiteSpace=wrap;rounded=0;" vertex="1" parent="1">
          <mxGeometry x="220" y="110" width="60" height="30" as="geometry" />
        </mxCell>
        <mxCell id="ejJGMftJFJ5ZxU9vuZ6l-75" value="Different response" style="text;html=1;align=center;verticalAlign=middle;whiteSpace=wrap;rounded=0;" vertex="1" parent="1">
          <mxGeometry x="480" y="40" width="60" height="30" as="geometry" />
        </mxCell>
        <mxCell id="ejJGMftJFJ5ZxU9vuZ6l-79" value="" style="shape=flexArrow;endArrow=classic;startArrow=classic;html=1;rounded=0;" edge="1" parent="1" target="ejJGMftJFJ5ZxU9vuZ6l-46">
          <mxGeometry width="100" height="100" relative="1" as="geometry">
            <mxPoint x="505" y="-40" as="sourcePoint" />
            <mxPoint x="590" y="-90" as="targetPoint" />
          </mxGeometry>
        </mxCell>
      </root>
    </mxGraphModel>
  </diagram>
</mxfile>
